<svg width="800" height="600" viewBox="0 0 800 600" fill="none" xmlns="http://www.w3.org/2000/svg">
<rect width="800" height="600" fill="#0F172A"/>
<mask id="mask0_1_2" style="mask-type:alpha" maskUnits="userSpaceOnUse" x="0" y="0" width="800" height="600">
<rect width="800" height="600" fill="#0F172A"/>
</mask>
<g mask="url(#mask0_1_2)">
<circle cx="686" cy="189" r="236" fill="#6366F1" fill-opacity="0.1"/>
<circle cx="94" cy="511" r="236" fill="#8B5CF6" fill-opacity="0.1"/>
<path d="M400 0L800 300V600L400 300L0 600V300L400 0Z" fill="url(#paint0_linear_1_2)" fill-opacity="0.05"/>
<path d="M0 0H800V600H0V0Z" fill="url(#paint1_radial_1_2)"/>
<g opacity="0.3">
<path d="M125.5 145.5L257.5 258.5" stroke="#38BDF8" stroke-width="2"/>
<path d="M257.5 258.5L389.5 371.5" stroke="#38BDF8" stroke-width="2"/>
<path d="M389.5 371.5L521.5 484.5" stroke="#38BDF8" stroke-width="2"/>
<path d="M125.5 145.5L255 125" stroke="#818CF8" stroke-width="2"/>
<path d="M257.5 258.5L300 200" stroke="#818CF8" stroke-width="2"/>
<circle cx="125.5" cy="145.5" r="4.5" fill="#38BDF8"/>
<circle cx="257.5" cy="258.5" r="4.5" fill="#38BDF8"/>
<circle cx="389.5" cy="371.5" r="4.5" fill="#38BDF8"/>
<circle cx="521.5" cy="484.5" r="4.5" fill="#38BDF8"/>
</g>
<g opacity="0.2">
<path d="M600 100L500 250" stroke="#C084FC" stroke-width="2"/>
<circle cx="600" cy="100" r="3" fill="#C084FC"/>
<circle cx="500" cy="250" r="3" fill="#C084FC"/>
</g>
</g>
<defs>
<linearGradient id="paint0_linear_1_2" x1="400" y1="0" x2="400" y2="600" gradientUnits="userSpaceOnUse">
<stop stop-color="#6366F1"/>
<stop offset="1" stop-color="#EC4899"/>
</linearGradient>
<radialGradient id="paint1_radial_1_2" cx="0" cy="0" r="1" gradientUnits="userSpaceOnUse" gradientTransform="translate(400 300) rotate(90) scale(300 400)">
<stop offset="0" stop-color="#0F172A" stop-opacity="0"/>
<stop offset="1" stop-color="#0F172A"/>
</radialGradient>
</defs>
</svg>
